# xmcd CD database file
#
# Track frame offsets:
#	150
#	22145
#	44561
#	64206
#	83532
#	106965
#	126852
#	147014
#	166256
#	193277
#
# Disc length: 2821 seconds
#
# Revision: 0
# Processed by: cddbd v1.5PL3 Copyright (c) Steve Scherf et al.
# Submitted via: CDex 1.51
#
DISCID=8b0b030a
DTITLE=Steven Noah - Wherever You Go
DYEAR=1900
DGENRE=Blues
TTITLE0=Pleasure Moments
TTITLE1=Wherever You Go
TTITLE2=Morning Breeze
TTITLE3=Highland Memories
TTITLE4=Goodbye Dark Seasons
TTITLE5=Coming Home
TTITLE6=Bright Days
TTITLE7=The Train
TTITLE8=Red Rock's Dreamdance
TTITLE9=Mental Journey
EXTD=
EXTT0=
EXTT1=
EXTT2=
EXTT3=
EXTT4=
EXTT5=
EXTT6=
EXTT7=
EXTT8=
EXTT9=
PLAYORDER=
